<svg width="586" height="543" viewBox="0 0 586 543" fill="none" xmlns="http://www.w3.org/2000/svg">
<g clip-path="url(#clip0_117_899)">
<path d="M501.705 8.75806H323.214V329.252H501.705V8.75806Z" fill="#EBEBEB"/>
<path d="M492.692 18.0238H330.323V319.733H492.692V18.0238Z" fill="#FAFAFA"/>
<path d="M492.692 21.5778L330.323 228.09V18.0238H492.692V21.5778Z" fill="#F5F5F5"/>
<path d="M496.247 104.843H330.323V108.016H496.247V104.843Z" fill="#EBEBEB"/>
<path d="M496.247 176.684H330.323V179.858H496.247V176.684Z" fill="#EBEBEB"/>
<path d="M496.247 248.526H330.323V251.699H496.247V248.526Z" fill="#EBEBEB"/>
<path d="M407.388 106.388V328.259H415.64V106.388H407.388Z" fill="#EBEBEB"/>
<path d="M365.234 18.0238H361.553V106.366H365.234V18.0238Z" fill="#EBEBEB"/>
<path d="M397.352 18.0238H393.671V106.366H397.352V18.0238Z" fill="#EBEBEB"/>
<path d="M429.344 18.0238H425.663V106.366H429.344V18.0238Z" fill="#EBEBEB"/>
<path d="M461.462 18.0238H457.781V106.366H461.462V18.0238Z" fill="#EBEBEB"/>
<path d="M323.087 3.30017H315.597V331.283H323.087V3.30017Z" fill="#F5F5F5"/>
<path d="M509.196 332.172L501.706 329.252V3.30017H509.196V332.172Z" fill="#E0E0E0"/>
<path d="M509.196 0H315.597V8.75807H509.196V0Z" fill="#E0E0E0"/>
<path d="M514.273 333.314H310.265V341.438H514.273V333.314Z" fill="#E0E0E0"/>
<path d="M501.705 329.252L514.273 333.314H310.265L323.214 329.252H501.705Z" fill="#EBEBEB"/>
<path d="M323.849 540.208C345.176 527.388 351.524 501.367 352.412 477.632C352.539 473.697 353.301 469.508 351.651 465.954C350 462.4 345.811 459.735 342.129 461.131C339.083 462.273 337.559 465.574 335.782 468.366C333.37 471.92 329.815 474.839 325.88 476.616C323.214 477.759 320.04 478.393 317.755 476.743C314.454 474.586 314.454 469.889 314.708 465.954C315.216 458.593 315.851 451.358 316.359 443.996C316.612 440.061 316.993 435.999 315.978 432.191C314.962 428.384 312.55 424.703 308.869 423.433C305.187 422.164 300.363 423.941 299.347 427.749C298.966 429.272 299.093 431.049 298.839 432.699C298.586 434.349 297.697 436.126 296.174 436.38C294.523 436.761 293.127 435.492 291.984 434.222C288.176 430.034 285.764 424.703 283.606 419.372C281.447 414.168 279.289 408.71 275.862 404.14C272.434 399.571 267.61 395.763 262.024 395.001C256.438 394.24 250.218 397.413 248.314 402.744C246.536 408.202 249.329 414.041 252.503 418.737C257.2 425.718 263.04 432.064 269.514 437.395C270.657 438.411 271.926 439.426 272.307 440.949C272.942 443.615 270.276 446.027 267.61 446.788C264.563 447.55 261.516 447.042 258.343 447.169C255.296 447.296 251.868 448.438 250.472 451.231C248.567 455.165 251.614 459.608 254.788 462.527C261.008 468.493 268.245 473.443 276.115 476.87C278.908 478.14 281.955 479.282 284.113 481.44C286.271 483.597 287.414 487.278 285.891 489.944C284.24 492.609 280.559 493.244 277.639 492.482C274.592 491.721 272.053 489.817 269.26 488.548C264.055 486.136 256.946 486.009 253.265 490.452C250.726 493.371 250.218 497.56 251.233 501.367C252.122 505.048 254.28 508.475 256.565 511.522C264.563 522.311 275.1 531.196 287.287 536.4C299.474 541.858 311.027 543.888 323.849 540.208Z" fill="#F5F5F5"/>
<path d="M319.913 541.35C319.659 531.957 321.31 537.161 318.644 524.976C315.978 512.791 311.915 499.717 307.345 486.136C306.203 482.709 304.933 479.409 303.791 476.109C302.648 472.808 301.506 469.508 300.109 466.462C297.443 460.243 294.523 454.404 291.477 448.946C288.43 443.488 285.383 438.411 282.59 433.715C279.67 429.018 276.877 424.703 274.211 420.895C268.879 413.152 263.801 407.567 260.12 403.759C258.343 401.855 256.819 400.459 255.804 399.571C255.296 399.063 254.915 398.809 254.661 398.555C254.407 398.301 254.28 398.175 254.28 398.175C254.28 398.175 254.407 398.301 254.661 398.555C254.915 398.809 255.296 399.19 255.804 399.698C256.819 400.713 258.216 402.109 259.993 404.013C263.548 407.821 268.626 413.533 273.831 421.276C276.496 425.083 279.289 429.399 282.082 434.222C285.002 438.919 287.922 443.996 290.969 449.454C294.016 454.912 296.935 460.75 299.474 466.97C300.744 470.143 301.886 473.316 303.029 476.616C304.172 479.916 305.314 483.217 306.584 486.644C311.281 500.225 315.343 513.299 318.009 525.484C320.675 537.669 319.152 532.338 319.405 541.731" fill="#E0E0E0"/>
<path d="M299.982 466.208C299.982 466.208 300.236 465.574 300.49 464.558C300.744 463.543 301.124 461.893 301.505 459.989C302.394 456.054 303.283 450.723 304.298 444.757C305.314 438.792 306.329 433.461 307.218 429.653C307.599 427.749 307.98 426.226 308.234 425.083C308.488 424.068 308.615 423.433 308.615 423.433C308.615 423.433 308.361 423.941 307.98 425.083C307.599 426.099 307.218 427.622 306.71 429.653C305.695 433.461 304.552 438.919 303.537 444.757C302.521 450.596 301.632 455.927 300.871 459.989C300.49 461.766 300.236 463.416 300.109 464.558C300.109 465.574 299.982 466.208 299.982 466.208Z" fill="#E0E0E0"/>
<path d="M250.091 453.261C250.091 453.261 250.853 453.388 252.122 453.642C253.392 453.896 255.296 454.15 257.581 454.531C262.151 455.292 268.499 456.689 275.354 458.466C282.209 460.243 288.43 462.146 292.873 463.67C295.031 464.431 296.808 465.066 298.078 465.447C299.347 465.827 299.982 466.081 299.982 466.081C299.982 466.081 299.347 465.7 298.205 465.193C297.062 464.685 295.285 463.923 293 463.162C288.557 461.512 282.463 459.481 275.481 457.704C268.625 455.927 262.278 454.658 257.581 453.896C255.296 453.515 253.392 453.261 252.122 453.261C250.853 453.261 250.091 453.261 250.091 453.261Z" fill="#E0E0E0"/>
<path d="M318.136 523.961C318.136 523.961 318.263 523.707 318.517 523.326C318.77 522.818 319.151 522.311 319.532 521.549C320.421 520.026 321.563 517.741 322.96 514.949C325.753 509.364 329.434 501.494 333.37 492.736C337.305 483.978 340.86 476.109 343.653 470.397C344.922 467.604 346.065 465.32 346.953 463.67C347.334 462.908 347.588 462.273 347.842 461.893C348.096 461.512 348.096 461.258 348.096 461.258C348.096 461.258 347.969 461.512 347.715 461.893C347.461 462.4 347.08 462.908 346.699 463.67C345.811 465.193 344.668 467.478 343.272 470.27C340.479 475.855 336.797 483.724 332.862 492.482C328.926 501.241 325.372 509.11 322.579 514.822C321.309 517.614 320.167 519.899 319.278 521.549C318.897 522.311 318.644 522.945 318.39 523.326C318.263 523.707 318.136 523.961 318.136 523.961Z" fill="#E0E0E0"/>
<path d="M252.503 497.56C252.503 497.56 252.757 497.686 253.138 497.94C253.645 498.194 254.28 498.448 255.042 498.702C256.819 499.463 259.231 500.352 262.024 501.494C267.991 503.906 276.116 507.333 285.129 511.014C294.142 514.822 302.394 518.122 308.361 520.407C311.408 521.549 313.82 522.438 315.47 523.072C316.232 523.326 316.866 523.58 317.374 523.707C317.882 523.834 318.009 523.961 318.136 523.834C318.136 523.834 317.882 523.707 317.501 523.453C316.993 523.199 316.359 522.945 315.597 522.691C313.82 521.93 311.408 521.041 308.615 519.899C302.648 517.487 294.523 514.06 285.51 510.379C276.496 506.571 268.245 503.271 262.278 500.987C259.231 499.844 256.819 498.956 255.169 498.321C254.407 498.067 253.772 497.813 253.265 497.687C252.757 497.687 252.503 497.56 252.503 497.56Z" fill="#E0E0E0"/>
<path d="M224.193 48.7405H176.206V64.2257H224.193V48.7405Z" fill="#F5F5F5"/>
<path d="M269.26 79.5841H221.273V95.0694H269.26V79.5841Z" fill="#FAFAFA"/>
<path d="M242.474 79.5841C242.474 79.5841 242.474 79.4571 242.474 79.3302C242.474 79.0764 242.474 78.8225 242.474 78.5687C242.474 77.8071 242.474 76.7916 242.474 75.5224C242.474 72.8569 242.347 69.049 242.347 64.2257L242.601 64.4796C231.302 64.4796 214.418 64.6065 195.629 64.6065C195.756 64.4796 195.249 64.9873 196.01 64.2257V64.3527V64.6065V65.1142V66.1297C196.01 66.7643 196.01 67.3989 196.01 68.1605C196.01 69.4298 196.01 70.826 196.01 72.0953C196.01 74.6339 196.01 77.1724 196.01 79.5841L195.629 79.2033C209.086 79.2033 220.765 79.3302 229.144 79.3302C233.333 79.3302 236.634 79.4571 239.046 79.4571C240.189 79.4571 241.077 79.4571 241.712 79.4571C242.093 79.5841 242.474 79.5841 242.474 79.5841C242.474 79.5841 242.22 79.5841 241.585 79.5841C240.95 79.5841 240.062 79.5841 239.046 79.5841C236.761 79.5841 233.333 79.5841 229.271 79.711C220.765 79.711 209.086 79.8379 195.502 79.8379H195.122V79.4571C195.122 77.0455 195.122 74.5069 195.122 71.9684C195.122 70.6991 195.122 69.4298 195.122 68.0336C195.122 67.3989 195.122 66.7643 195.122 66.0027V64.9873V64.4796V64.2257V64.0988C195.756 63.4642 195.249 63.9719 195.502 63.718C214.291 63.718 231.175 63.8449 242.474 63.8449H242.728V64.0988C242.728 68.9221 242.601 72.8569 242.601 75.5224C242.601 76.7916 242.601 77.8071 242.601 78.5687C242.474 79.2033 242.474 79.5841 242.474 79.5841Z" fill="#E0E0E0"/>
<path d="M569.624 180.619H521.637V196.104H569.624V180.619Z" fill="#FAFAFA"/>
<path d="M585.746 180.111C585.746 180.111 585.746 179.985 585.746 179.858C585.746 179.604 585.746 179.35 585.746 179.096C585.746 178.334 585.746 177.319 585.746 176.05C585.746 173.384 585.619 169.576 585.619 164.753L585.873 165.007C574.575 165.007 557.69 165.134 538.902 165.134C539.029 165.007 538.521 165.515 539.283 164.753V164.88V165.134V165.642V166.657C539.283 167.292 539.283 167.926 539.283 168.688C539.283 169.957 539.283 171.353 539.283 172.623C539.283 175.161 539.283 177.7 539.283 180.111L538.902 179.731C552.359 179.731 564.038 179.858 572.417 179.858C576.606 179.858 579.907 179.985 582.319 179.985C583.461 179.985 584.35 179.985 584.985 179.985C585.365 180.111 585.746 180.111 585.746 180.111C585.746 180.111 585.492 180.111 584.858 180.111C584.223 180.111 583.334 180.111 582.319 180.111C580.034 180.111 576.606 180.111 572.544 180.238C564.038 180.238 552.358 180.365 538.775 180.365H538.394V179.985C538.394 177.573 538.394 175.034 538.394 172.496C538.394 171.226 538.394 169.957 538.394 168.561C538.394 167.926 538.394 167.292 538.394 166.53V165.515V165.007V164.88C539.029 164.245 538.521 164.753 538.775 164.499C557.563 164.499 574.448 164.626 585.746 164.626H586V164.88C586 169.703 585.873 173.638 585.873 176.304C585.873 177.573 585.873 178.588 585.873 179.35C585.746 179.858 585.746 180.238 585.746 180.111Z" fill="#E0E0E0"/>
<path d="M549.438 354.511H501.451V369.997H549.438V354.511Z" fill="#F5F5F5"/>
<path d="M566.069 369.489H518.082V384.974H566.069V369.489Z" fill="#FAFAFA"/>
<path d="M535.601 400.079C535.601 400.079 535.601 399.952 535.601 399.825C535.601 399.571 535.601 399.317 535.601 399.063C535.601 398.302 535.601 397.286 535.601 396.017C535.601 393.351 535.474 389.544 535.474 384.72L535.728 384.974C524.429 384.974 507.545 385.101 488.756 385.101C488.883 384.974 488.375 385.482 489.137 384.72V384.847V385.101V385.609V386.624C489.137 387.259 489.137 387.893 489.137 388.655C489.137 389.924 489.137 391.32 489.137 392.59C489.137 395.128 489.137 397.667 489.137 400.079L488.756 399.698C502.213 399.698 513.892 399.825 522.271 399.825C526.46 399.825 529.761 399.952 532.173 399.952C533.316 399.952 534.204 399.952 534.839 399.952C535.22 400.079 535.601 400.079 535.601 400.079C535.601 400.079 535.347 400.079 534.712 400.079C534.077 400.079 533.189 400.079 532.173 400.079C529.888 400.079 526.46 400.079 522.398 400.205C513.892 400.205 502.213 400.332 488.629 400.332H488.249V399.952C488.249 397.54 488.249 395.001 488.249 392.463C488.249 391.194 488.249 389.924 488.249 388.528C488.249 387.893 488.249 387.259 488.249 386.497V385.482V384.974V384.72V384.593C488.883 383.959 488.375 384.466 488.629 384.213C507.418 384.213 524.302 384.339 535.601 384.339H535.855V384.593C535.855 389.417 535.728 393.351 535.728 396.017C535.728 397.286 535.728 398.302 535.728 399.063C535.601 399.698 535.601 400.079 535.601 400.079Z" fill="#E0E0E0"/>
<path d="M65.3791 145.206H17.3921V160.691H65.3791V145.206Z" fill="#FAFAFA"/>
<path d="M86.5798 145.206C86.5798 145.206 86.5798 145.079 86.5798 144.952C86.5798 144.698 86.5798 144.445 86.5798 144.191C86.5798 143.429 86.5798 142.414 86.5798 141.144C86.5798 138.479 86.4528 134.671 86.4528 129.848L86.7067 130.102C75.4082 130.102 58.5239 130.229 39.7353 130.229C39.8623 130.102 39.3545 130.609 40.1162 129.848V129.975V130.229V130.736V131.752C40.1162 132.386 40.1162 133.021 40.1162 133.783C40.1162 135.052 40.1162 136.448 40.1162 137.717C40.1162 140.256 40.1162 142.795 40.1162 145.206L39.7353 144.825C53.192 144.825 64.8714 144.952 73.2501 144.952C77.4394 144.952 80.7401 145.079 83.1521 145.079C84.2947 145.079 85.1833 145.079 85.8181 145.079C86.3259 145.206 86.5798 145.206 86.5798 145.206C86.5798 145.206 86.3259 145.206 85.6911 145.206C85.0564 145.206 84.1677 145.206 83.1521 145.206C80.8671 145.206 77.4394 145.206 73.377 145.333C64.8714 145.333 53.192 145.46 39.6084 145.46H39.2275V145.079C39.2275 142.668 39.2275 140.129 39.2275 137.59C39.2275 136.321 39.2275 135.052 39.2275 133.656C39.2275 133.021 39.2275 132.386 39.2275 131.625V130.609V130.102V129.848V129.721C39.8623 129.086 39.3545 129.594 39.6084 129.34C58.397 129.34 75.2813 129.467 86.5798 129.467H86.8337V129.721C86.8337 134.544 86.7067 138.479 86.7067 141.144C86.7067 142.414 86.7067 143.429 86.7067 144.191C86.5798 144.825 86.5798 145.206 86.5798 145.206Z" fill="#E0E0E0"/>
<path d="M579.906 542.619C579.906 542.746 450.037 543 289.953 543C129.743 542.873 0 542.746 0 542.619C0 542.492 129.743 542.239 289.953 542.239C450.037 542.239 579.906 542.365 579.906 542.619Z" fill="#263238"/>
<path d="M533.062 478.52L531.411 509.999C531.411 511.141 530.396 512.03 529.253 512.03L472.634 512.41C471.491 512.41 470.476 511.522 470.476 510.253L470.349 485.755C470.349 484.613 471.237 483.598 472.507 483.598H507.291C507.799 483.598 508.434 483.344 508.814 482.963L514.781 476.997C515.162 476.616 515.67 476.363 516.304 476.363L531.031 476.236C532.173 476.236 533.189 477.251 533.062 478.52Z" fill="#FF725E"/>
<path opacity="0.3" d="M533.062 478.52L531.411 509.999C531.411 511.141 530.396 512.03 529.253 512.03L472.634 512.41C471.491 512.41 470.476 511.522 470.476 510.253L470.349 485.755C470.349 484.613 471.237 483.598 472.507 483.598H507.291C507.799 483.598 508.434 483.344 508.814 482.963L514.781 476.997C515.162 476.616 515.67 476.363 516.304 476.363L531.031 476.236C532.173 476.236 533.189 477.251 533.062 478.52Z" fill="black"/>
<path d="M470.598 516.83L532.422 516.377L532.152 479.441L470.327 479.894L470.598 516.83Z" fill="#F5F5F5"/>
<path d="M537.124 482.709L532.681 521.295C532.554 521.93 532.046 522.438 531.284 522.565L471.11 522.945C470.349 522.945 469.841 522.438 469.714 521.676L466.413 483.217C466.286 482.455 466.921 481.694 467.81 481.694L535.728 481.186C536.489 481.186 537.124 481.947 537.124 482.709Z" fill="#FF725E"/>
<path d="M549.693 472.555L548.042 504.033C548.042 505.175 547.027 506.064 545.884 506.064L489.265 506.445C488.122 506.445 487.106 505.556 487.106 504.287L486.979 479.79C486.979 478.647 487.868 477.632 489.138 477.632H523.922C524.43 477.632 525.064 477.378 525.445 476.997L531.412 471.032C531.793 470.651 532.301 470.397 532.935 470.397L547.661 470.27C548.804 470.27 549.82 471.285 549.693 472.555Z" fill="#FF725E"/>
<path opacity="0.3" d="M549.693 472.555L548.042 504.033C548.042 505.175 547.027 506.064 545.884 506.064L489.265 506.445C488.122 506.445 487.106 505.556 487.106 504.287L486.979 479.79C486.979 478.647 487.868 477.632 489.138 477.632H523.922C524.43 477.632 525.064 477.378 525.445 476.997L531.412 471.032C531.793 470.651 532.301 470.397 532.935 470.397L547.661 470.27C548.804 470.27 549.82 471.285 549.693 472.555Z" fill="black"/>
<path d="M487.248 510.939L549.073 510.486L548.802 473.549L486.978 474.002L487.248 510.939Z" fill="#F5F5F5"/>
<path d="M553.755 476.743L549.312 515.33C549.185 515.964 548.677 516.472 547.915 516.599L487.741 516.98C486.979 516.98 486.472 516.472 486.345 515.71L483.044 477.251C482.917 476.49 483.552 475.728 484.44 475.728L552.359 475.22C553.247 475.22 553.882 475.982 553.755 476.743Z" fill="#FF725E"/>
<path opacity="0.3" d="M553.755 476.743L549.312 515.33C549.185 515.964 548.677 516.472 547.915 516.599L487.741 516.98C486.979 516.98 486.472 516.472 486.345 515.71L483.044 477.251C482.917 476.49 483.552 475.728 484.44 475.728L552.359 475.22C553.247 475.22 553.882 475.982 553.755 476.743Z" fill="black"/>
<path d="M568.481 479.917L566.831 511.395C566.831 512.537 565.815 513.426 564.673 513.426L508.053 513.806C506.911 513.806 505.895 512.918 505.895 511.649L505.768 487.151C505.768 486.009 506.657 484.994 507.926 484.994H542.71C543.218 484.994 543.853 484.74 544.234 484.359L550.2 478.393C550.581 478.013 551.089 477.759 551.724 477.759L566.45 477.632C567.593 477.632 568.608 478.647 568.481 479.917Z" fill="#FF725E"/>
<path d="M505.965 518.294L567.79 517.841L567.519 480.905L505.695 481.358L505.965 518.294Z" fill="#F5F5F5"/>
<path d="M572.544 484.105L568.1 522.691C567.973 523.326 567.466 523.834 566.704 523.961L506.53 524.341C505.768 524.341 505.26 523.834 505.133 523.072L501.833 484.613C501.706 483.851 502.34 483.09 503.229 483.09L571.147 482.582C571.909 482.582 572.544 483.344 572.544 484.105Z" fill="#FF725E"/>
<path d="M501.833 489.436V542.873H578.891V489.436H501.833ZM526.969 498.956C526.969 496.798 528.746 495.021 530.904 495.021H549.82C551.978 495.021 553.755 496.798 553.755 498.956C553.755 501.114 551.978 502.891 549.82 502.891H530.904C528.746 503.018 526.969 501.241 526.969 498.956Z" fill="#455A64"/>
<path d="M460.193 489.436V542.873H501.832V489.436H460.193Z" fill="#263238"/>
<path d="M314.836 502.51L310.773 525.738C310.773 525.738 285.891 529.419 284.622 533.607L329.308 543L337.052 507.079L314.836 502.51Z" fill="#FF725E"/>
<g opacity="0.6">
<path d="M324.992 526.626C325.753 527.007 326.261 528.149 325.753 529.038C325.372 529.926 324.23 530.307 323.468 529.926C322.706 529.546 322.072 528.276 322.579 527.388C323.087 526.626 324.357 526.245 325.118 526.753" fill="white"/>
</g>
<path opacity="0.6" d="M329.435 543L330.07 539.319L286.907 531.703C286.907 531.703 284.749 532.211 284.622 533.607L329.435 543Z" fill="white"/>
<path d="M310.139 525.357C310.139 525.611 311.154 525.865 312.043 526.88C312.932 527.769 313.312 528.784 313.566 528.784C313.82 528.784 313.693 527.388 312.551 526.245C311.535 525.103 310.139 525.103 310.139 525.357Z" fill="#263238"/>
<path d="M305.061 526.245C304.934 526.499 305.822 527.007 306.33 528.149C306.965 529.165 306.838 530.307 307.092 530.307C307.346 530.434 307.727 529.165 306.965 527.768C306.33 526.372 305.061 525.991 305.061 526.245Z" fill="#263238"/>
<path d="M301.125 531.323C301.252 531.449 301.887 530.434 301.506 529.038C301.252 527.769 300.236 527.007 300.109 527.134C299.982 527.261 300.49 528.022 300.744 529.165C301.125 530.307 300.998 531.196 301.125 531.323Z" fill="#263238"/>
<path d="M311.662 520.153C311.662 520.407 312.805 520.28 313.947 520.661C315.217 521.041 316.105 521.549 316.232 521.422C316.359 521.295 315.597 520.28 314.201 519.899C312.678 519.391 311.535 519.899 311.662 520.153Z" fill="#263238"/>
<path opacity="0.3" d="M314.074 507.079L313.312 511.268L335.274 515.583L336.163 511.902L314.074 507.079Z" fill="black"/>
<path d="M312.551 515.456C312.551 515.583 313.312 515.837 314.836 515.964C315.597 515.964 316.359 515.964 317.375 515.71C317.883 515.583 318.263 515.456 318.771 515.329C319.025 515.203 319.279 515.203 319.533 514.949C319.787 514.822 320.041 514.187 319.914 513.806C319.787 513.426 319.406 513.172 319.025 513.045C318.644 512.918 318.39 512.918 318.136 513.045C317.629 513.045 317.121 513.172 316.613 513.172C315.724 513.426 314.836 513.679 314.201 514.06C312.932 514.822 312.424 515.583 312.551 515.583C312.678 515.71 313.312 515.076 314.455 514.568C315.09 514.314 315.851 514.06 316.74 513.806C317.121 513.679 317.629 513.679 318.136 513.679C318.644 513.679 319.025 513.679 319.152 513.933C319.152 514.06 319.152 514.06 319.025 514.187C318.898 514.314 318.644 514.441 318.39 514.441C317.883 514.568 317.502 514.695 317.121 514.822C316.232 515.076 315.471 515.203 314.836 515.203C313.439 515.456 312.551 515.329 312.551 515.456Z" fill="#263238"/>
<path d="M312.678 515.837C312.805 515.837 313.312 515.203 313.693 513.806C313.82 513.172 313.947 512.283 313.947 511.268C313.947 510.76 313.82 510.252 313.693 509.745C313.566 509.237 313.312 508.602 312.551 508.348C312.17 508.222 311.662 508.475 311.535 508.729C311.281 508.983 311.281 509.237 311.154 509.491C310.9 509.999 310.9 510.506 310.773 511.014C310.773 512.029 310.9 512.918 311.281 513.553C311.916 514.949 312.805 515.33 312.805 515.33C312.932 515.203 312.17 514.695 311.789 513.426C311.535 512.791 311.408 512.029 311.535 511.141C311.535 510.76 311.662 510.252 311.789 509.872C311.916 509.364 312.17 509.11 312.424 509.11C312.678 509.11 312.932 509.618 313.059 509.999C313.185 510.506 313.312 510.887 313.312 511.268C313.439 512.156 313.439 512.918 313.312 513.553C313.059 514.949 312.678 515.71 312.678 515.837Z" fill="#263238"/>
<path d="M466.794 503.017L457.146 490.452L456.638 489.817L440.135 502.129L455.369 518.884L454.861 535.892C446.355 538.05 445.086 542.365 445.086 542.365H462.732L478.727 511.522L466.794 503.017Z" fill="#FF725E"/>
<path opacity="0.6" d="M478.728 511.268L462.732 542.111H444.959L446.99 539.446L461.335 538.684L476.189 509.491L478.728 511.268Z" fill="white"/>
<path d="M454.861 527.895C454.988 528.022 456.003 527.515 457.4 527.515C458.796 527.515 459.812 528.149 459.939 527.895C460.066 527.768 459.05 526.753 457.4 526.753C455.749 526.753 454.734 527.768 454.861 527.895Z" fill="#263238"/>
<path d="M455.115 523.707C455.242 523.834 456.13 522.818 457.527 522.564C458.923 522.311 460.066 522.945 460.193 522.691C460.193 522.564 460.066 522.311 459.558 522.057C459.05 521.803 458.288 521.549 457.4 521.803C456.511 521.93 455.876 522.438 455.496 522.945C455.115 523.326 455.115 523.707 455.115 523.707Z" fill="#263238"/>
<path d="M455.115 518.249C455.369 518.376 455.877 517.36 457.146 516.853C458.416 516.472 459.431 516.853 459.558 516.599C459.558 516.472 459.431 516.218 458.923 516.091C458.416 515.964 457.654 515.837 456.892 516.091C456.131 516.345 455.623 516.853 455.369 517.36C454.988 517.868 454.988 518.249 455.115 518.249Z" fill="#263238"/>
<path d="M450.291 514.06C450.545 514.187 451.053 513.172 452.068 512.41C453.084 511.649 454.226 511.649 454.226 511.395C454.226 511.141 452.957 510.887 451.56 511.776C450.418 512.664 450.164 514.06 450.291 514.06Z" fill="#263238"/>
<path d="M448.006 510.506C448.133 510.506 448.64 509.872 449.529 508.602C450.037 507.841 450.545 507.206 451.052 506.445C451.306 506.064 451.687 505.683 451.814 505.048C451.941 504.668 451.941 504.287 451.687 504.033C451.56 503.652 451.052 503.398 450.672 503.525C449.91 503.652 449.529 504.033 449.021 504.414C448.64 504.794 448.26 505.175 448.006 505.683C447.498 506.571 447.117 507.46 447.117 508.222C446.99 509.745 447.498 510.633 447.498 510.633C447.625 510.633 447.371 509.745 447.625 508.348C447.752 507.714 448.006 506.825 448.64 506.064C448.894 505.683 449.275 505.302 449.656 505.048C450.037 504.794 450.545 504.414 450.926 504.414C451.052 504.414 451.179 504.414 451.306 504.541C451.433 504.668 451.433 504.921 451.306 505.048C451.179 505.429 450.926 505.81 450.672 506.318C450.164 507.079 449.783 507.841 449.275 508.475C448.387 509.618 447.879 510.379 448.006 510.506Z" fill="#263238"/>
<path d="M447.371 511.014C447.498 511.014 447.371 510.125 446.482 508.983C445.594 507.968 443.562 506.952 441.277 508.095C441.15 508.222 441.023 508.475 441.023 508.729C441.023 508.983 441.15 509.11 441.277 509.237C441.531 509.491 441.658 509.618 441.912 509.745C442.293 509.999 442.801 510.252 443.182 510.506C444.07 510.887 444.832 511.141 445.467 511.141C446.863 511.268 447.625 511.014 447.625 510.887C447.625 510.76 446.736 510.887 445.594 510.506C444.959 510.379 444.197 510.125 443.435 509.745C443.055 509.491 442.674 509.364 442.293 509.11C442.166 508.983 441.912 508.856 441.785 508.729C441.658 508.602 441.658 508.602 441.785 508.602C441.785 508.475 442.039 508.475 442.293 508.475C442.547 508.475 442.674 508.348 442.928 508.348C443.309 508.348 443.816 508.348 444.197 508.475C444.959 508.602 445.594 508.983 446.101 509.491C446.99 510.252 447.244 511.014 447.371 511.014Z" fill="#263238"/>
<path opacity="0.6" d="M466.667 512.791C467.859 512.791 468.826 511.825 468.826 510.633C468.826 509.442 467.859 508.475 466.667 508.475C465.476 508.475 464.509 509.442 464.509 510.633C464.509 511.825 465.476 512.791 466.667 512.791Z" fill="white"/>
<path opacity="0.3" d="M441.658 503.652L444.959 507.333L459.304 493.244L457.273 490.705L441.658 503.652Z" fill="black"/>
<path d="M355.332 276.323C355.332 276.323 338.829 332.299 324.103 395.636C315.216 433.968 306.71 505.429 306.71 505.429L345.938 514.06L362.695 422.291L380.595 367.966C386.689 350.83 395.575 338.264 406.366 328.999C418.045 312.498 424.139 293.585 421.727 273.531L355.332 276.323Z" fill="#263238"/>
<path d="M352.158 285.208L366.757 405.79C368.154 417.468 370.185 428.637 378.056 437.269L437.341 507.587L466.667 481.313L403.827 395.382L414.744 274.292L353.301 284.827" fill="#263238"/>
<path d="M404.462 394.494C404.589 394.747 401.923 396.017 399.384 398.682C396.845 401.221 395.702 404.013 395.448 403.886C395.194 403.886 396.083 400.84 398.749 398.048C401.415 395.382 404.462 394.24 404.462 394.494Z" fill="#455A64"/>
<path d="M403.573 395.382C403.573 395.636 401.288 395.509 398.368 395.763C395.575 396.017 393.29 396.524 393.163 396.271C393.036 396.017 395.321 395.128 398.241 394.874C401.288 394.747 403.573 395.128 403.573 395.382Z" fill="#455A64"/>
<path d="M420.077 300.82C420.077 300.82 420.077 301.328 419.823 302.217C419.696 302.724 419.569 303.232 419.442 303.867C419.315 304.501 419.061 305.263 418.807 306.151C417.791 309.452 415.76 314.148 412.333 319.352C408.905 324.556 404.208 330.268 399.13 336.614C396.591 339.787 394.052 343.341 391.767 347.149C389.482 350.957 387.324 355.019 385.292 359.334C381.357 367.966 378.183 376.343 375.517 384.086C372.851 391.828 370.566 398.809 368.662 404.775C366.758 410.614 365.234 415.437 364.219 418.737C363.711 420.387 363.203 421.529 362.949 422.545C362.695 423.433 362.441 423.814 362.441 423.814C362.441 423.814 362.568 423.306 362.822 422.418C363.076 421.529 363.457 420.133 363.965 418.61C364.98 415.183 366.377 410.487 368.154 404.521C369.931 398.555 372.217 391.574 374.882 383.832C377.548 376.089 380.722 367.585 384.658 358.954C386.689 354.638 388.72 350.576 391.132 346.769C393.417 342.961 396.083 339.407 398.622 336.233C403.7 329.76 408.524 324.175 411.952 319.098C415.379 314.021 417.538 309.452 418.68 306.151C418.934 305.39 419.188 304.628 419.442 303.994C419.569 303.359 419.696 302.851 419.823 302.344C419.95 301.328 420.077 300.82 420.077 300.82Z" fill="#455A64"/>
<path d="M278.528 241.545L268.245 246.876L250.345 255.634C249.202 256.015 248.187 256.903 247.552 258.046L240.951 269.596H253.519L256.819 264.011C256.819 264.011 263.802 266.804 268.88 260.711L287.033 254.365L278.528 241.545Z" fill="#FFBE9D"/>
<path d="M398.115 100.02C399.511 96.9733 403.066 95.0694 406.366 95.4501C409.667 95.8309 412.714 98.6234 413.349 101.923C413.73 103.447 413.476 105.224 414.237 106.62C415.126 108.651 417.538 109.793 419.696 109.285C419.061 110.428 418.046 111.443 416.903 112.078C417.411 111.57 418.427 112.078 418.681 112.712C418.808 113.474 418.427 114.236 417.792 114.616C417.157 114.997 416.395 115.124 415.634 115.251C411.952 115.759 408.017 115.886 404.97 113.982C401.669 111.824 400.146 107.762 398.876 104.081" fill="#263238"/>
<path d="M363.457 89.4845C359.649 89.8653 356.475 92.6577 354.317 95.704C352.159 98.8772 350.635 102.431 348.223 105.477C346.446 107.762 344.288 109.793 343.399 112.585C342.003 116.901 344.415 121.978 342.511 126.04C341.495 128.325 339.21 129.975 338.067 132.259C336.671 135.179 337.306 138.606 338.194 141.652C338.829 143.81 339.591 146.095 341.368 147.491C342.764 148.633 344.542 149.014 346.192 149.268C359.141 151.679 372.725 150.029 384.658 144.445" fill="#263238"/>
<path d="M393.164 111.316C392.91 100.273 383.642 91.5154 372.471 92.0231C361.934 92.5308 353.809 101.67 353.809 112.205C353.809 121.47 353.936 130.736 354.444 134.036C356.094 144.064 362.442 147.11 364.981 147.872C365.615 147.999 367.139 148.125 367.774 148.125C367.774 148.125 367.9 148.125 367.9 148.252L367.393 160.057C367.52 167.672 372.725 173.892 380.342 173.892C388.086 173.892 393.164 167.292 393.164 159.549V111.316Z" fill="#FFBE9D"/>
<path d="M357.491 117.282C357.491 118.17 358.125 118.805 359.014 118.932C359.903 118.932 360.664 118.297 360.664 117.536C360.664 116.647 360.03 116.013 359.141 115.886C358.252 115.759 357.491 116.52 357.491 117.282Z" fill="#263238"/>
<path d="M356.475 114.489C356.729 114.743 357.872 113.855 359.649 113.855C361.426 113.855 362.696 114.743 362.823 114.489C362.95 114.362 362.696 113.982 362.188 113.601C361.68 113.22 360.665 112.839 359.649 112.839C358.633 112.839 357.618 113.22 357.11 113.601C356.602 114.109 356.348 114.489 356.475 114.489Z" fill="#263238"/>
<path d="M374.375 117.282C374.375 118.17 375.01 118.805 375.898 118.932C376.787 118.932 377.549 118.297 377.549 117.536C377.549 116.647 376.914 116.013 376.025 115.886C375.264 115.759 374.502 116.52 374.375 117.282Z" fill="#263238"/>
<path d="M373.486 114.87C373.74 115.124 374.883 114.236 376.66 114.236C378.437 114.236 379.707 115.124 379.834 114.87C379.961 114.743 379.707 114.362 379.199 113.982C378.691 113.601 377.676 113.22 376.66 113.22C375.645 113.22 374.629 113.601 374.121 113.982C373.613 114.362 373.36 114.743 373.486 114.87Z" fill="#263238"/>
<path d="M367.266 127.69C367.266 127.563 366.25 127.436 364.473 127.182C364.092 127.182 363.584 127.055 363.584 126.802C363.457 126.421 363.711 126.04 363.838 125.532C364.219 124.517 364.727 123.374 365.108 122.105C366.885 117.282 368.282 113.347 368.028 113.347C367.774 113.22 366.25 117.155 364.346 121.851C363.965 122.994 363.457 124.136 363.077 125.278C362.95 125.786 362.569 126.294 362.823 127.055C362.95 127.436 363.204 127.563 363.584 127.69C363.838 127.817 364.092 127.817 364.346 127.817C366.123 127.817 367.139 127.817 367.266 127.69Z" fill="#263238"/>
<path d="M367.773 148.125C367.773 148.125 374.502 148.633 382.88 143.683C382.88 143.683 380.215 152.568 367.646 151.299L367.773 148.125Z" fill="#EB996E"/>
<path d="M367.9 131.879C368.535 131.117 369.551 130.609 370.693 130.736C371.455 130.863 372.217 131.117 372.598 131.752C373.105 132.386 373.105 133.275 372.724 133.783C372.217 134.417 371.328 134.544 370.439 134.417C369.551 134.163 368.916 133.656 368.281 133.148C368.154 133.021 367.9 132.894 367.773 132.64C367.773 132.386 367.773 132.132 367.9 131.879Z" fill="#EB996E"/>
<path d="M372.344 128.832C372.09 128.832 372.09 130.736 370.439 132.006C368.789 133.402 366.885 133.148 366.758 133.402C366.758 133.529 367.266 133.783 368.027 133.783C368.916 133.783 370.058 133.529 371.074 132.767C372.09 132.006 372.471 130.863 372.598 130.102C372.598 129.34 372.471 128.832 372.344 128.832Z" fill="#263238"/>
<path d="M372.725 111.824C372.852 112.332 374.629 112.078 376.66 112.332C378.691 112.586 380.342 113.093 380.596 112.712C380.723 112.459 380.469 112.078 379.707 111.57C379.072 111.062 378.057 110.682 376.787 110.555C375.518 110.428 374.502 110.555 373.74 110.935C372.979 111.189 372.598 111.57 372.725 111.824Z" fill="#263238"/>
<path d="M357.11 110.935C357.364 111.316 358.633 110.935 360.03 110.935C361.426 110.809 362.696 111.189 362.949 110.809C363.076 110.555 362.822 110.174 362.315 109.793C361.807 109.412 360.918 109.158 359.903 109.158C358.887 109.158 358.125 109.539 357.618 109.92C357.11 110.428 356.983 110.809 357.11 110.935Z" fill="#263238"/>
<path d="M351.397 109.92C353.936 112.839 360.283 109.92 363.838 107.128C368.408 109.285 374.121 107.255 376.406 102.558C379.072 105.097 383.515 103.447 384.785 100.02C386.054 96.5925 384.404 92.15 381.611 89.6115C378.945 87.0729 375.263 86.1844 371.836 86.0575C363.711 85.8036 355.586 90.1192 351.778 97.8618C350.254 101.543 349.619 106.239 351.397 109.92Z" fill="#263238"/>
<path d="M381.103 89.4846C388.339 86.946 396.591 93.2924 398.115 98.4965C400.781 107.508 399.638 108.905 402.05 113.093C403.573 115.759 407.763 118.17 409.667 120.963C411.698 123.882 412.46 129.34 411.952 132.894C411.444 135.94 408.778 144.445 408.778 144.445C408.778 144.445 397.607 145.714 391.767 145.079C390.244 144.952 388.72 144.572 387.451 143.81C386.181 143.048 387.959 139.241 387.578 137.844C386.435 133.783 383.008 131.879 383.261 127.817C383.642 122.232 387.832 121.344 386.943 115.886C386.435 112.966 381.484 109.412 380.722 106.62C379.834 103.827 376.66 93.9271 381.103 89.4846Z" fill="#263238"/>
<path d="M399.638 106.747C399.384 106.747 399.511 104.843 399.257 102.685C398.876 100.4 398.242 98.7503 398.369 98.6233C398.496 98.4964 399.511 100.273 399.892 102.558C400.146 104.843 399.765 106.747 399.638 106.747Z" fill="#FF725E"/>
<path d="M398.876 103.701C398.876 103.701 398.622 103.827 398.114 103.954C397.606 104.081 396.845 104.208 395.829 104.208C394.814 104.208 393.671 103.954 392.529 103.447C391.386 102.939 390.243 102.05 389.228 100.908C388.212 99.7658 387.451 98.7503 386.435 98.1157C385.419 97.3541 384.404 96.9733 383.642 96.7195C381.865 96.2118 380.722 96.3387 380.722 96.2118C380.722 96.2118 380.976 96.0848 381.484 96.0848C381.992 96.0848 382.753 96.0848 383.769 96.3387C384.658 96.5926 385.8 96.9733 386.816 97.7349C387.831 98.4965 388.847 99.5119 389.736 100.654C391.513 102.812 394.052 103.827 395.829 103.954C397.733 103.954 398.876 103.574 398.876 103.701Z" fill="#455A64"/>
<path d="M418.68 112.332C418.68 112.332 418.426 112.586 417.792 112.839C417.157 112.966 416.141 112.966 414.999 112.459C413.856 111.951 412.841 110.935 412.079 109.539C411.317 108.143 410.809 106.493 410.048 104.97C409.286 103.447 408.397 102.05 407.001 101.416C405.731 100.781 404.335 100.781 403.319 101.162C401.161 101.797 400.399 103.193 400.272 103.066C400.272 103.066 400.399 102.685 400.78 102.177C401.161 101.67 401.923 101.035 403.065 100.654C404.208 100.273 405.731 100.147 407.255 100.908C408.778 101.543 409.794 103.066 410.555 104.716C411.317 106.366 411.825 107.889 412.46 109.285C413.094 110.555 413.983 111.57 414.999 112.078C416.014 112.586 416.903 112.712 417.538 112.586C418.426 112.459 418.68 112.332 418.68 112.332Z" fill="#455A64"/>
<path d="M398.876 102.558C398.876 102.558 398.622 102.685 397.987 102.685C397.353 102.685 396.464 102.304 395.702 101.67C394.814 101.035 394.052 100.02 393.29 98.8772C392.528 97.7349 391.894 96.3387 390.878 95.1963C388.72 92.9116 385.8 92.277 383.769 92.4039C381.738 92.5308 380.595 93.1655 380.595 93.0385C380.595 93.0385 380.849 92.7847 381.357 92.5308C381.865 92.277 382.753 92.0231 383.769 91.8962C385.8 91.6423 389.101 92.2769 391.386 94.6886C392.528 95.9579 393.163 97.3541 393.798 98.4964C394.433 99.6388 395.194 100.654 395.956 101.289C397.48 102.558 399.003 102.431 398.876 102.558Z" fill="#455A64"/>
<path d="M402.177 145.714C402.177 145.714 402.684 145.079 403.446 143.683C404.208 142.414 405.223 140.51 405.985 137.971C406.747 135.433 407.128 132.259 406.239 128.832C405.477 125.532 403.319 121.978 399.892 119.947C398.114 118.932 396.337 118.297 394.56 117.155C392.909 116.14 391.513 114.616 390.751 112.966C389.989 111.316 389.609 109.666 389.101 108.143C388.72 106.62 388.212 105.224 387.704 104.081C386.562 101.67 384.658 100.4 383.261 100.02C381.865 99.6388 380.976 100.02 380.976 99.8927C380.976 99.8927 381.103 99.7657 381.611 99.7657C381.992 99.6388 382.626 99.6388 383.388 99.7657C384.912 100.02 386.943 101.289 388.212 103.827C388.847 104.97 389.355 106.493 389.736 107.889C390.243 109.412 390.624 111.062 391.386 112.586C392.148 114.109 393.29 115.505 394.941 116.52C396.591 117.536 398.368 118.17 400.272 119.186C403.954 121.344 405.985 125.025 406.874 128.578C407.762 132.132 407.255 135.433 406.366 137.971C405.604 140.51 404.462 142.414 403.573 143.683C403.192 144.318 402.811 144.825 402.558 145.079C402.304 145.587 402.177 145.714 402.177 145.714Z" fill="#455A64"/>
<path d="M347.208 148.76C347.208 148.76 347.081 148.633 346.827 148.379C346.573 148.126 346.319 147.745 346.065 147.237C345.431 146.222 344.669 144.572 344.415 142.414C344.034 140.256 344.161 137.464 345.431 134.798C346.065 133.402 346.954 132.259 347.716 130.863C348.477 129.594 349.239 128.071 349.366 126.548C349.62 123.374 348.097 120.328 347.843 117.409C347.589 114.489 347.97 111.824 348.858 109.793C349.747 107.762 350.889 106.366 351.778 105.478C352.286 105.097 352.54 104.716 352.921 104.589C353.175 104.462 353.301 104.335 353.301 104.335C353.301 104.335 352.794 104.843 352.032 105.731C351.27 106.62 350.128 108.016 349.366 110.047C348.604 112.078 348.223 114.616 348.604 117.409C348.731 118.805 349.112 120.201 349.493 121.724C349.874 123.248 350.255 124.898 350.128 126.548C350.001 128.325 349.239 129.848 348.35 131.117C347.462 132.513 346.573 133.656 346.065 134.925C344.923 137.464 344.669 140.129 344.923 142.16C345.177 144.318 345.811 145.968 346.446 146.983C346.827 148.252 347.335 148.76 347.208 148.76Z" fill="#455A64"/>
<path d="M370.566 87.4538C370.566 87.5807 368.662 87.4537 365.742 88.4692C362.949 89.3577 359.141 91.5155 356.602 95.3233C354.19 99.1312 353.428 103.447 353.301 106.366C353.174 109.412 353.936 111.189 353.809 111.189C353.809 111.189 353.555 110.809 353.301 109.92C353.047 109.032 352.92 107.889 352.793 106.366C352.793 103.32 353.428 99.0042 355.967 94.9425C358.633 91.0078 362.696 88.85 365.615 88.0884C367.139 87.7076 368.281 87.5807 369.17 87.4538C370.059 87.3268 370.566 87.4538 370.566 87.4538Z" fill="#455A64"/>
<path d="M361.934 103.701C361.934 103.701 361.807 103.32 361.553 102.558C361.426 101.797 361.299 100.781 361.426 99.385C361.68 96.7195 362.949 93.0386 366.123 90.3731C369.424 87.8345 373.359 87.3268 375.898 87.7076C377.168 87.8345 378.31 88.2153 378.945 88.4692C379.58 88.723 379.961 88.9769 379.961 88.9769C379.961 89.1038 378.437 88.3422 375.898 88.0884C373.359 87.8345 369.551 88.3422 366.504 90.8808C363.457 93.4194 362.061 96.9734 361.807 99.385C361.68 102.051 362.061 103.701 361.934 103.701Z" fill="#455A64"/>
<path d="M419.823 284.193L406.112 231.137L410.809 210.447L417.665 171.353C417.665 171.353 411.317 162.722 395.068 161.961L393.925 154.091L365.996 155.107L365.488 162.595C360.537 163.865 351.397 167.546 345.938 177.827L326.261 214.89L272.18 242.053L279.289 258.807C279.289 258.807 333.624 238.245 338.194 236.214C341.241 234.818 344.542 229.233 347.461 223.14C349.62 233.548 351.905 241.799 351.905 241.799L351.397 282.543L419.823 284.193Z" fill="#FF725E"/>
<path d="M395.448 176.431C395.448 176.431 394.687 176.684 393.544 177.065C392.275 177.446 390.497 177.954 388.212 178.715C385.927 179.477 383.388 180.365 380.214 181.127C378.691 181.508 377.041 181.762 375.263 181.635C373.486 181.508 371.836 180.746 370.185 179.858C368.535 178.969 367.139 178.081 365.615 177.319C364.092 176.558 362.568 176.05 361.172 175.669C358.125 174.907 355.332 174.907 353.047 175.161C348.35 175.796 345.811 177.446 345.811 177.192C345.811 177.192 345.938 177.065 346.192 176.938C346.446 176.811 346.954 176.558 347.588 176.304C348.858 175.796 350.635 175.161 352.92 174.781C355.332 174.4 358.125 174.4 361.299 175.161C362.822 175.542 364.346 176.05 365.996 176.811C367.519 177.573 369.043 178.588 370.566 179.35C372.09 180.112 373.74 180.873 375.39 181C377.041 181.127 378.691 180.873 380.087 180.492C383.134 179.858 385.8 178.969 387.958 178.208C390.243 177.446 392.021 176.938 393.29 176.684C393.925 176.558 394.433 176.431 394.814 176.431C395.321 176.431 395.448 176.431 395.448 176.431Z" fill="#FAFAFA"/>
<path d="M403.827 203.339C403.827 203.466 402.812 203.086 400.78 203.086C398.876 202.959 395.956 203.212 392.656 204.228C389.355 205.243 385.546 206.893 381.357 208.924C377.168 210.828 372.471 213.113 367.139 213.874C365.742 214.128 364.473 214.128 363.076 214.128C361.807 214.001 360.41 213.874 359.268 213.494C356.729 212.859 354.571 211.717 352.539 210.447C348.604 207.909 345.303 205.37 342.003 204.355C338.702 203.213 335.782 203.339 334.005 203.974C332.228 204.609 331.339 205.497 331.339 205.37C331.339 205.37 331.466 205.116 331.974 204.863C332.354 204.609 332.989 204.101 334.005 203.72C335.782 202.959 338.829 202.705 342.257 203.847C345.684 204.863 349.112 207.528 353.047 209.94C354.952 211.082 357.11 212.224 359.522 212.859C360.664 213.24 361.934 213.367 363.203 213.367C364.473 213.367 365.742 213.367 367.139 213.113C372.344 212.351 377.041 210.194 381.23 208.29C385.419 206.259 389.228 204.609 392.656 203.72C396.083 202.832 399.003 202.705 400.907 202.832C401.923 202.959 402.685 203.086 403.192 203.213C403.573 203.339 403.827 203.339 403.827 203.339Z" fill="#FAFAFA"/>
<path d="M353.047 184.808C353.047 184.808 353.047 185.062 352.92 185.316C352.793 185.696 352.666 186.204 352.412 186.839C352.031 188.108 351.27 190.012 350.381 192.297C349.492 194.581 348.35 197.374 347.334 200.42C346.826 201.943 346.446 203.593 346.065 205.37C345.684 207.147 345.557 208.924 345.684 210.828C345.938 214.509 346.573 218.063 347.207 221.363C347.842 224.536 348.604 227.456 349.112 229.867C349.746 232.279 350.127 234.183 350.508 235.579C350.635 236.214 350.762 236.722 350.889 237.102C351.016 237.483 351.016 237.61 351.016 237.61C351.016 237.61 350.762 236.849 350.381 235.579C350 234.183 349.492 232.279 348.858 229.867C348.223 227.456 347.461 224.663 346.826 221.363C346.192 218.19 345.43 214.636 345.176 210.828C345.049 208.924 345.303 207.02 345.684 205.243C346.065 203.466 346.446 201.816 347.08 200.293C348.096 197.12 349.238 194.454 350.254 192.17C351.27 189.885 352.031 188.108 352.539 186.712C352.793 185.569 353.047 184.808 353.047 184.808Z" fill="#263238"/>
<path d="M322.071 242.56C322.071 242.56 321.691 242.687 321.056 242.433C320.421 242.307 319.659 241.799 318.771 241.164C317.882 240.403 316.993 239.514 316.105 238.245C315.216 236.976 314.835 235.325 314.454 233.675C314.074 232.025 313.693 230.502 313.185 229.106C312.677 227.837 311.916 226.694 311.027 226.06C309.377 224.537 307.853 224.663 307.98 224.537C307.98 224.537 308.361 224.41 308.996 224.537C309.63 224.663 310.519 224.917 311.408 225.679C312.296 226.44 313.185 227.456 313.82 228.852C314.454 230.248 314.835 231.771 315.216 233.422C315.597 235.072 315.978 236.595 316.74 237.737C317.501 239.006 318.39 239.895 319.152 240.656C319.913 241.418 320.675 241.799 321.31 242.053C321.691 242.433 322.071 242.433 322.071 242.56Z" fill="#FAFAFA"/>
<path d="M291.096 254.365C290.969 254.365 291.096 253.222 290.842 251.445C290.588 249.668 290.08 247.257 289.064 244.718C288.049 242.18 286.652 240.022 285.637 238.626C284.494 237.229 283.732 236.468 283.732 236.341C283.732 236.341 284.748 236.975 285.891 238.245C287.16 239.641 288.557 241.799 289.572 244.337C290.588 246.876 291.222 249.414 291.222 251.191C291.349 253.222 291.096 254.365 291.096 254.365Z" fill="#FAFAFA"/>
<path d="M406.239 230.629C406.239 230.756 405.478 230.629 403.954 230.756C402.558 230.883 400.4 231.137 397.988 231.898C395.449 232.533 392.656 233.675 389.355 234.818C386.181 235.96 382.5 237.229 378.564 237.864C370.693 239.133 363.33 237.864 358.379 236.087C355.967 235.199 354.063 234.31 352.666 233.675C352.032 233.295 351.524 233.041 351.27 232.787C350.889 232.533 350.762 232.533 350.762 232.406C350.762 232.406 351.524 232.66 352.793 233.295C354.063 233.929 355.967 234.691 358.506 235.452C363.457 236.976 370.566 238.245 378.437 236.976C382.373 236.341 385.927 235.199 389.101 234.056C392.275 232.914 395.322 231.898 397.861 231.264C400.4 230.629 402.558 230.375 403.954 230.375C404.716 230.375 405.224 230.375 405.605 230.375C405.985 230.629 406.239 230.629 406.239 230.629Z" fill="#FAFAFA"/>
<g opacity="0.3">
<path d="M367.52 162.595C374.756 166.784 384.277 166.784 391.513 162.722C383.515 163.103 375.39 163.103 367.266 162.849" fill="black"/>
</g>
<path d="M394.941 161.834C394.941 161.834 394.56 161.961 393.798 162.215C393.036 162.469 392.021 162.722 390.624 162.849C387.958 163.23 384.277 163.357 380.214 163.23C376.152 163.103 372.471 162.849 369.805 162.849C367.139 162.849 365.488 162.976 365.488 162.849C365.488 162.849 365.869 162.722 366.631 162.595C367.393 162.469 368.408 162.469 369.805 162.342C372.471 162.215 376.152 162.342 380.214 162.595C384.277 162.722 387.958 162.722 390.624 162.468C393.29 162.088 394.814 161.707 394.941 161.834Z" fill="#263238"/>
<path d="M377.802 220.348C378.564 221.871 422.489 256.903 435.057 266.931C436.961 268.454 437.215 271.119 435.692 272.896L406.366 309.325C404.843 311.102 402.304 311.482 400.399 309.959L344.288 265.534C342.383 264.011 342.13 261.219 343.78 259.442L377.802 220.348Z" fill="#263238"/>
<path d="M377.167 214.128C377.929 215.651 424.9 253.095 435.564 261.6C436.707 262.488 436.961 264.265 435.945 265.407L404.715 304.121C403.827 305.263 402.049 305.517 400.907 304.501L342.383 258.046C341.114 257.03 340.987 255.253 342.002 254.111L377.167 214.128Z" fill="#FF725E"/>
<path opacity="0.4" d="M377.168 214.128C377.929 215.651 425.916 253.857 435.945 261.853C436.961 262.615 437.088 264.138 436.326 265.154L404.589 304.501C403.827 305.517 402.304 305.644 401.288 304.882L342.129 258.046C341.114 257.157 340.987 255.634 341.876 254.618L377.168 214.128Z" fill="black"/>
<path d="M381.991 214.763C396.845 227.202 437.088 259.188 437.088 259.188L405.858 297.901C403.954 300.186 400.526 300.567 398.241 298.79L344.033 255.888C341.621 253.984 341.241 250.303 343.272 248.018L371.582 215.651C374.248 212.605 378.818 212.224 381.991 214.763Z" fill="#455A64"/>
<path d="M419.315 244.972L420.077 250.43L434.295 262.615L437.088 259.188L419.315 244.972Z" fill="#FAFAFA"/>
<path d="M377.549 299.043L391.005 287.874L384.531 272.261L375.517 280.512C374.883 280.639 372.724 281.273 369.043 281.654C367.9 281.781 366.758 281.654 365.742 281.4C364.473 281.02 362.695 280.512 361.807 280.004C360.791 279.243 359.395 280.258 359.776 281.4C360.156 282.543 363.076 284.574 367.266 285.208C370.947 285.843 366.758 288.508 364.346 289.905C363.965 290.158 363.711 290.666 363.965 291.174C364.981 293.966 369.805 303.105 377.549 299.043Z" fill="#FFBE9D"/>
<path d="M398.876 188.87C397.861 174.907 410.81 160.691 418.427 172.496C426.678 185.316 444.959 215.651 449.402 236.214C451.434 245.733 394.052 291.428 390.498 294.347C390.371 294.474 389.482 293.205 389.355 293.078L375.137 278.354C375.01 278.227 378.437 274.8 378.564 274.673L419.061 235.071C419.188 234.945 419.188 234.945 419.061 234.818C417.665 232.406 399.892 199.785 398.876 189.25C398.876 189.123 398.876 188.996 398.876 188.87Z" fill="#FF725E"/>
<path d="M430.868 234.818C430.741 235.071 428.075 234.183 424.647 234.183C421.219 234.056 418.553 234.691 418.427 234.437C418.3 234.183 421.092 233.041 424.647 233.168C428.202 233.294 430.868 234.564 430.868 234.818Z" fill="#263238"/>
<path d="M428.328 239.26C428.074 239.387 426.424 237.61 423.885 236.341C421.219 234.945 418.807 234.691 418.934 234.437C418.934 234.183 421.6 234.056 424.393 235.579C427.059 236.849 428.455 239.133 428.328 239.26Z" fill="#263238"/>
<path d="M419.061 235.071C419.061 235.071 418.934 234.818 418.68 234.31C418.426 233.802 418.046 233.041 417.538 232.152C416.522 230.121 415.126 227.456 413.475 224.029C410.048 217.048 405.351 207.655 400.146 197.247C397.353 192.043 395.575 186.585 395.322 181.508C394.941 176.431 396.464 171.607 399.13 168.815C400.4 167.419 402.05 166.53 403.573 166.022C405.097 165.515 406.366 165.388 407.509 165.515C408.651 165.642 409.413 165.895 409.921 166.149C410.175 166.276 410.429 166.403 410.556 166.403C410.683 166.53 410.683 166.53 410.683 166.53C410.683 166.657 409.667 165.895 407.509 165.769C406.493 165.642 405.097 165.769 403.7 166.276C402.304 166.784 400.78 167.672 399.511 169.069C396.972 171.861 395.575 176.431 395.956 181.508C396.21 186.585 397.988 191.916 400.653 196.993C405.731 207.401 410.429 216.921 413.856 223.902C415.507 227.329 416.776 230.121 417.792 232.025C418.173 232.914 418.553 233.675 418.807 234.31C418.934 234.818 419.061 235.071 419.061 235.071Z" fill="#263238"/>
<g opacity="0.3">
<path d="M395.956 181C394.433 193.439 393.417 205.878 394.56 218.317C395.195 224.79 402.05 233.041 407.509 236.722L406.112 231.137C406.874 227.456 409.54 216.032 409.54 216.032C409.54 216.032 404.589 206.259 402.558 202.578C398.749 195.597 396.464 188.87 395.956 181Z" fill="black"/>
</g>
<path d="M445.34 223.902C445.34 223.902 445.086 224.283 444.451 224.663C444.197 224.917 443.816 225.171 443.308 225.552C442.801 225.806 442.293 226.187 441.785 226.567C440.642 227.329 439.119 227.964 437.469 228.725C435.818 229.36 433.914 229.994 431.756 230.502C429.725 230.883 427.694 231.137 425.916 231.264C424.139 231.264 422.489 231.264 421.092 231.01C420.457 230.883 419.823 230.756 419.315 230.629C418.807 230.502 418.299 230.375 417.918 230.248C417.157 229.994 416.776 229.867 416.776 229.867C416.776 229.741 418.426 230.248 421.092 230.502C422.489 230.629 424.012 230.629 425.789 230.629C427.567 230.502 429.471 230.248 431.502 229.867C433.533 229.487 435.437 228.852 437.088 228.217C438.738 227.583 440.262 226.948 441.404 226.313C443.943 224.79 445.213 223.775 445.34 223.902Z" fill="#FAFAFA"/>
<path d="M421.727 266.423C421.6 266.423 421.219 265.027 420.458 262.869C419.696 260.711 418.68 257.538 417.157 254.365C416.395 252.841 415.507 251.318 414.491 250.176C413.602 248.907 412.587 248.018 411.698 247.257C409.921 245.86 408.524 245.353 408.524 245.226C408.524 245.226 408.905 245.226 409.54 245.606C410.175 245.86 411.063 246.241 411.952 247.003C412.968 247.637 413.983 248.653 414.999 249.922C416.014 251.191 416.903 252.588 417.792 254.238C419.442 257.411 420.331 260.584 420.966 262.869C421.6 265.027 421.854 266.423 421.727 266.423Z" fill="#FAFAFA"/>
<path d="M406.747 280.512C406.747 280.639 405.351 280.258 403.446 279.243C401.415 278.354 398.876 276.704 396.337 274.546C393.798 272.388 391.894 269.977 390.751 268.073C389.609 266.169 388.974 265.027 389.101 264.9C389.228 264.9 389.863 266.042 391.132 267.819C392.402 269.596 394.306 271.881 396.845 274.039C399.384 276.196 401.796 277.846 403.7 278.862C405.477 279.877 406.747 280.385 406.747 280.512Z" fill="#FAFAFA"/>
<path d="M420.965 176.557C420.965 176.557 420.584 176.811 419.95 176.938C419.315 177.192 418.299 177.446 417.03 177.573C414.618 177.954 411.19 177.7 407.508 177.954C405.604 178.081 403.954 178.334 402.43 178.969C400.907 179.477 399.765 180.238 398.749 181C396.972 182.523 396.464 184.173 396.337 184.046C396.337 184.046 396.337 183.665 396.591 183.031C396.845 182.396 397.479 181.508 398.368 180.619C399.257 179.731 400.526 178.969 402.05 178.334C403.573 177.7 405.35 177.446 407.255 177.319C411.063 177.065 414.364 177.446 416.776 177.192C419.569 177.065 420.965 176.557 420.965 176.557Z" fill="#FAFAFA"/>
<path d="M434.041 200.293C434.041 200.293 433.914 200.674 433.533 201.308C433.026 201.943 432.264 202.705 430.994 203.212C429.725 203.72 428.075 203.974 426.424 204.101C424.647 204.228 422.743 204.482 420.839 204.862C416.903 205.624 413.475 206.893 411.063 207.909C408.651 208.924 407.255 209.813 407.255 209.686C407.255 209.686 407.509 209.432 408.144 209.051C408.778 208.67 409.667 208.163 410.936 207.528C413.349 206.386 416.776 204.989 420.712 204.228C424.647 203.339 428.455 203.72 430.868 202.832C433.28 201.816 434.041 200.166 434.041 200.293Z" fill="#FAFAFA"/>
<path d="M120.348 74.1262C125.553 74.3801 130.377 77.1725 133.678 81.1073C137.105 85.0421 139.137 89.9923 140.406 94.9425C142.945 104.589 141.168 116.013 138.375 125.659C127.965 121.851 121.617 110.555 118.698 104.716C114.254 95.3233 111.715 75.7763 120.348 74.1262Z" fill="#FF725E"/>
<path d="M153.355 137.464C150.054 132.64 150.054 126.04 152.72 120.963C155.386 115.886 160.464 112.205 165.923 110.555C168.462 109.793 171.509 109.539 173.667 110.935C175.698 112.332 176.587 115.124 176.333 117.536C176.079 120.074 174.81 122.232 173.286 124.263C168.208 131.117 161.988 136.829 153.355 137.464Z" fill="#FF725E"/>
<g opacity="0.3">
<path d="M153.355 137.464C150.054 132.64 150.054 126.04 152.72 120.963C155.386 115.886 160.464 112.205 165.923 110.555C168.462 109.793 171.509 109.539 173.667 110.935C175.698 112.332 176.587 115.124 176.333 117.536C176.079 120.074 174.81 122.232 173.286 124.263C168.208 131.117 161.988 136.829 153.355 137.464Z" fill="white"/>
</g>
<path d="M142.31 147.745C135.963 137.337 124.284 130.483 112.096 129.848C109.05 129.721 105.241 130.229 103.972 133.148C102.702 135.94 104.606 139.241 106.765 141.398C115.778 150.664 130.631 153.71 142.564 148.633" fill="#FF725E"/>
<g opacity="0.3">
<path d="M142.31 147.745C135.963 137.337 124.284 130.483 112.096 129.848C109.05 129.721 105.241 130.229 103.972 133.148C102.702 135.94 104.606 139.241 106.765 141.398C115.778 150.664 130.631 153.71 142.564 148.633" fill="white"/>
</g>
<path d="M153.482 170.719C153.482 170.719 153.228 169.957 153.101 168.688C152.847 167.419 152.593 165.388 152.213 163.103C151.578 158.28 150.816 151.68 151.832 144.191C152.847 136.829 155.767 130.483 158.814 126.802C160.337 124.898 161.734 123.501 162.876 122.74C163.384 122.359 163.892 121.978 164.146 121.851C164.4 121.598 164.654 121.598 164.654 121.598C164.781 121.724 162.115 123.248 159.195 127.182C156.275 130.99 153.482 137.083 152.467 144.445C151.578 151.68 152.213 158.407 152.72 163.103C152.974 165.388 153.228 167.292 153.355 168.815C153.482 169.957 153.482 170.719 153.482 170.719Z" fill="#263238"/>
<path d="M123.649 88.85C123.649 88.85 123.776 89.1038 124.03 89.6115C124.284 90.2462 124.665 91.0078 125.045 91.8963C125.934 93.9271 127.204 96.8465 128.727 100.527C131.774 107.889 135.963 118.044 140.279 129.467C144.596 140.891 148.277 151.299 150.816 158.788C152.086 162.595 153.101 165.642 153.736 167.799C153.99 168.815 154.244 169.576 154.498 170.211C154.625 170.719 154.752 171.1 154.752 171.1C154.752 171.1 154.625 170.846 154.371 170.211C154.117 169.576 153.863 168.815 153.482 167.799C152.72 165.642 151.705 162.595 150.308 158.914C147.642 151.426 143.961 141.018 139.645 129.594C135.328 118.17 131.266 108.016 128.346 100.527C126.823 96.8465 125.68 93.9271 124.791 91.7693C124.411 90.7539 124.03 89.9923 123.903 89.3577C123.649 89.1038 123.522 88.85 123.649 88.85Z" fill="#263238"/>
<path d="M116.92 137.844C116.92 137.844 117.682 137.844 118.952 137.971C119.586 137.971 120.348 138.098 121.237 138.352C122.125 138.479 123.141 138.733 124.283 138.987C124.791 139.114 125.426 139.368 126.061 139.494C126.696 139.621 127.33 139.875 127.965 140.129C129.235 140.51 130.631 141.144 132.027 141.779C134.82 143.175 137.613 144.952 140.406 147.11C143.199 149.395 145.484 151.806 147.388 154.218C148.277 155.487 149.166 156.63 149.927 157.772C150.308 158.407 150.689 158.914 150.943 159.422C151.197 159.93 151.451 160.565 151.832 161.072C152.339 162.088 152.72 163.103 153.101 163.865C153.482 164.753 153.736 165.515 153.863 166.022C154.244 167.292 154.371 167.926 154.371 167.926C154.244 167.926 153.482 165.261 151.324 161.199C151.07 160.691 150.816 160.184 150.435 159.676C150.181 159.168 149.8 158.661 149.42 158.026C148.785 156.884 147.769 155.741 146.881 154.472C144.976 152.187 142.691 149.649 140.025 147.491C137.359 145.333 134.439 143.556 131.774 142.16C130.377 141.525 129.108 140.891 127.838 140.383C127.203 140.129 126.569 139.875 126.061 139.748C125.426 139.621 124.918 139.368 124.283 139.241C119.84 138.098 116.92 137.971 116.92 137.844Z" fill="#263238"/>
<path d="M155.64 198.897H149.166C140.533 198.897 133.551 191.916 133.551 183.285V161.326H171.128V183.285C171.255 191.916 164.273 198.897 155.64 198.897Z" fill="#FF725E"/>
<path opacity="0.3" d="M155.64 198.897H149.166C140.533 198.897 133.551 191.916 133.551 183.285V161.326H171.128V183.285C171.255 191.916 164.273 198.897 155.64 198.897Z" fill="black"/>
<path d="M159.068 161.453C159.068 161.453 158.941 161.834 158.687 162.595C158.306 163.23 157.798 164.245 157.036 165.388C155.513 167.673 152.72 170.465 148.912 172.369C145.103 174.273 141.295 174.907 138.502 174.781C137.105 174.781 135.963 174.654 135.201 174.527C134.439 174.4 134.059 174.273 134.059 174.273C134.059 174.146 135.709 174.527 138.502 174.4C141.168 174.273 144.976 173.638 148.658 171.861C152.339 169.957 155.005 167.292 156.656 165.134C158.179 162.976 158.941 161.326 159.068 161.453Z" fill="#FAFAFA"/>
<path d="M170.874 186.712C170.874 186.712 170.366 186.712 169.605 186.458C168.843 186.204 167.7 185.823 166.558 185.062C164.146 183.665 160.972 180.746 159.576 176.558C158.179 172.369 158.687 168.18 159.829 165.515C160.337 164.118 160.972 163.103 161.353 162.468C161.861 161.834 162.115 161.453 162.115 161.453C162.242 161.58 161.099 162.976 160.21 165.515C159.322 168.18 158.814 172.115 160.21 176.177C161.607 180.238 164.527 183.031 166.812 184.554C169.097 186.204 170.874 186.585 170.874 186.712Z" fill="#FAFAFA"/>
<path d="M161.226 197.881C161.099 197.881 161.48 195.724 160.464 192.297C159.956 190.647 159.068 188.743 157.671 186.966C156.275 185.189 154.371 183.412 152.085 182.142C147.515 179.477 142.437 179.223 139.01 179.604C135.582 179.985 133.551 181 133.551 180.873C133.551 180.873 134.059 180.619 134.947 180.238C135.836 179.858 137.232 179.477 139.01 179.223C142.437 178.715 147.642 178.842 152.466 181.635C154.878 183.031 156.783 184.808 158.179 186.712C159.575 188.616 160.464 190.52 160.972 192.297C161.48 194.074 161.48 195.47 161.48 196.485C161.353 197.374 161.226 197.881 161.226 197.881Z" fill="#FAFAFA"/>
<path d="M166.685 198.897H48.2407V542.492H166.685V198.897Z" fill="#263238"/>
<path d="M230.16 198.897H100.544V542.492H230.16V198.897Z" fill="#455A64"/>
<path d="M224.32 296.505H108.796V367.458H224.32V296.505Z" fill="#455A64"/>
<path d="M184.585 468.493H150.435C148.912 468.493 147.643 467.224 147.643 465.701V463.924H187.251V465.701C187.378 467.351 186.108 468.493 184.585 468.493Z" fill="#263238"/>
<path d="M224.066 464.051C224.066 464.051 224.066 464.431 224.066 465.32C224.066 466.208 224.066 467.351 224.066 469.001C224.066 472.301 224.066 476.997 224.193 483.217C224.193 495.529 224.32 513.299 224.32 535.004V535.257H224.066C192.71 535.257 152.467 535.257 108.542 535.384H108.161V535.004C108.161 509.872 108.161 486.009 108.161 464.177V463.924H108.415C142.438 463.924 171.255 463.924 191.821 464.051C201.977 464.051 210.102 464.051 215.561 464.051C218.354 464.051 220.385 464.051 221.908 464.051C222.543 464.051 223.178 464.051 223.558 464.051C223.939 463.924 224.066 464.051 224.066 464.051C224.066 464.051 223.812 464.051 223.558 464.051C223.178 464.051 222.67 464.051 221.908 464.051C220.385 464.051 218.354 464.051 215.561 464.051C209.975 464.051 201.85 464.051 191.694 464.177C171.255 464.177 142.438 464.304 108.542 464.431L108.796 464.177C108.796 486.009 108.796 509.872 108.796 535.004L108.415 534.623C152.34 534.623 192.583 534.623 223.939 534.75L223.685 535.004C223.685 513.299 223.812 495.656 223.812 483.344C223.812 477.251 223.812 472.428 223.939 469.128C223.939 467.478 223.939 466.208 223.939 465.447C224.066 464.431 224.066 464.051 224.066 464.051Z" fill="#263238"/>
<path d="M185.855 481.313H151.451V490.579H185.855V481.313Z" fill="#E0E0E0"/>
<path d="M224.32 375.454H108.796V446.408H224.32V375.454Z" fill="#455A64"/>
<path d="M184.458 389.163H150.309C148.785 389.163 147.516 387.894 147.516 386.37V384.593H187.124V386.37C187.251 387.894 185.981 389.163 184.458 389.163Z" fill="#263238"/>
<path d="M225.209 384.593C225.209 384.593 225.209 384.974 225.209 385.863C225.209 386.751 225.209 387.893 225.209 389.544C225.209 392.844 225.209 397.54 225.336 403.76C225.336 416.072 225.463 433.842 225.463 455.546V455.8H225.209C193.852 455.8 153.609 455.8 109.685 455.927H109.304V455.546C109.304 430.415 109.304 406.552 109.304 384.72V384.466H109.558C143.58 384.466 172.398 384.466 192.964 384.593C203.12 384.593 211.244 384.593 216.703 384.593C219.496 384.593 221.527 384.593 223.051 384.593C223.685 384.593 224.32 384.593 224.701 384.593C225.082 384.593 225.209 384.593 225.209 384.593C225.209 384.593 224.955 384.593 224.701 384.593C224.32 384.593 223.812 384.593 223.051 384.593C221.527 384.593 219.496 384.593 216.703 384.593C211.117 384.593 202.993 384.593 192.837 384.72C172.398 384.72 143.58 384.847 109.685 384.974L109.938 384.72C109.938 406.552 109.938 430.415 109.938 455.546L109.558 455.166C153.482 455.166 193.725 455.166 225.082 455.293L224.828 455.546C224.828 433.842 224.955 416.199 224.955 403.887C224.955 397.794 224.955 392.971 225.082 389.671C225.082 388.02 225.082 386.751 225.082 385.99C225.209 385.101 225.209 384.593 225.209 384.593Z" fill="#263238"/>
<path d="M184.585 401.475H150.182V410.741H184.585V401.475Z" fill="#E0E0E0"/>
<path d="M184.839 212.859H150.689C149.166 212.859 147.896 211.59 147.896 210.067V208.29H187.505V210.067C187.632 211.59 186.362 212.859 184.839 212.859Z" fill="#263238"/>
<path d="M224.32 208.29C224.32 208.29 224.32 208.67 224.32 209.559C224.32 210.447 224.32 211.59 224.32 213.24C224.32 216.54 224.32 221.236 224.447 227.456C224.447 239.768 224.574 257.538 224.574 279.243V279.497H224.32C192.964 279.497 152.72 279.497 108.796 279.623H108.415V279.243C108.415 254.111 108.415 230.248 108.415 208.417V208.163H108.669C142.691 208.163 171.509 208.163 192.075 208.29C202.231 208.29 210.356 208.29 215.815 208.29C218.607 208.29 220.639 208.29 222.162 208.29C222.797 208.29 223.432 208.29 223.812 208.29C224.193 208.29 224.32 208.29 224.32 208.29C224.32 208.29 224.066 208.29 223.812 208.29C223.432 208.29 222.924 208.29 222.162 208.29C220.639 208.29 218.607 208.29 215.815 208.29C210.229 208.29 202.104 208.29 191.948 208.417C171.509 208.417 142.691 208.543 108.796 208.67L109.05 208.417C109.05 230.248 109.05 254.111 109.05 279.243L108.669 278.862C152.594 278.862 192.837 278.862 224.193 278.989L223.939 279.243C223.939 257.538 224.066 239.895 224.066 227.583C224.066 221.49 224.066 216.667 224.193 213.367C224.193 211.717 224.193 210.447 224.193 209.686C224.32 208.797 224.32 208.29 224.32 208.29Z" fill="#263238"/>
<path d="M184.458 223.394H150.055V232.66H184.458V223.394Z" fill="#E0E0E0"/>
<path d="M109.177 319.479V292.824C109.177 290.539 111.081 288.635 113.366 288.635H184.331C186.616 288.635 188.393 290.412 188.393 292.697V319.479H109.177Z" fill="#FF725E"/>
<path opacity="0.3" d="M109.177 319.479V292.824C109.177 290.539 111.081 288.635 113.366 288.635H184.331C186.616 288.635 188.393 290.412 188.393 292.697V319.479H109.177Z" fill="black"/>
<path d="M116.413 319.479V295.997C116.413 295.743 116.54 295.616 116.794 295.616H188.394V319.479H116.413Z" fill="#FAFAFA"/>
<path d="M204.643 291.174L202.612 319.479H125.426L127.457 293.205C127.711 290.666 129.362 288.762 131.52 288.762L168.97 289.016C168.97 287.239 170.113 285.843 171.509 285.843H200.581C202.993 285.716 204.77 288.255 204.643 291.174Z" fill="#FF725E"/>
<path d="M140.787 316.687V290.032C140.787 287.747 142.691 285.843 144.976 285.843H215.941C218.226 285.843 220.004 287.62 220.004 289.905V316.687H140.787Z" fill="#FF725E"/>
<path opacity="0.3" d="M140.787 316.687V290.032C140.787 287.747 142.691 285.843 144.976 285.843H215.941C218.226 285.843 220.004 287.62 220.004 289.905V316.687H140.787Z" fill="black"/>
<path d="M148.023 316.687V293.205C148.023 292.951 148.15 292.824 148.404 292.824H220.004V316.687H148.023Z" fill="#FAFAFA"/>
<path d="M236.126 288.382L234.095 316.687H157.037L159.068 290.412C159.322 287.874 160.972 285.97 163.13 285.97L200.58 286.224C200.58 284.447 201.723 283.051 203.119 283.051H232.064C234.476 283.051 236.38 285.462 236.126 288.382Z" fill="#FF725E"/>
<path d="M184.712 318.21V291.555C184.712 289.27 186.616 287.366 188.901 287.366H259.866C262.151 287.366 263.929 289.143 263.929 291.428V318.21H184.712Z" fill="#FF725E"/>
<path opacity="0.3" d="M184.712 318.21V291.555C184.712 289.27 186.616 287.366 188.901 287.366H259.866C262.151 287.366 263.929 289.143 263.929 291.428V318.21H184.712Z" fill="black"/>
<path d="M191.948 318.21V294.728C191.948 294.474 192.075 294.347 192.329 294.347H263.929V318.21H191.948Z" fill="#FAFAFA"/>
<path d="M268.118 288.255H195.502V330.776H268.118V288.255Z" fill="#E0E0E0"/>
<path d="M274.211 269.342H200.961V314.783H274.211V269.342Z" fill="#F5F5F5"/>
<path d="M214.291 311.863C214.164 311.863 213.91 303.994 213.91 294.347C213.91 284.701 214.037 276.831 214.291 276.831C214.418 276.831 214.672 284.701 214.672 294.347C214.672 304.121 214.545 311.863 214.291 311.863Z" fill="#263238"/>
<path d="M219.496 311.863C219.369 311.863 219.115 303.994 219.115 294.347C219.115 284.701 219.242 276.831 219.496 276.831C219.623 276.831 219.877 284.701 219.877 294.347C219.877 304.121 219.75 311.863 219.496 311.863Z" fill="#263238"/>
<path d="M225.208 311.863C225.082 311.863 224.828 303.994 224.828 294.347C224.828 284.701 224.955 276.831 225.208 276.831C225.335 276.831 225.589 284.701 225.589 294.347C225.462 304.121 225.335 311.863 225.208 311.863Z" fill="#263238"/>
<path d="M230.794 311.863C230.667 311.863 230.414 303.994 230.414 294.347C230.414 284.701 230.541 276.831 230.794 276.831C231.048 276.831 231.175 284.701 231.175 294.347C231.175 304.121 231.048 311.863 230.794 311.863Z" fill="#263238"/>
<path d="M236.507 311.863C236.38 311.863 236.126 303.994 236.126 294.347C236.126 284.701 236.253 276.831 236.507 276.831C236.634 276.831 236.888 284.701 236.888 294.347C236.888 304.121 236.761 311.863 236.507 311.863Z" fill="#263238"/>
<path d="M242.22 311.863C242.093 311.863 241.839 303.994 241.839 294.347C241.839 284.701 241.966 276.831 242.22 276.831C242.347 276.831 242.601 284.701 242.601 294.347C242.474 304.121 242.347 311.863 242.22 311.863Z" fill="#263238"/>
<path d="M247.806 311.863C247.679 311.863 247.425 303.994 247.425 294.347C247.425 284.701 247.552 276.831 247.806 276.831C247.933 276.831 248.187 284.701 248.187 294.347C248.187 304.121 248.06 311.863 247.806 311.863Z" fill="#263238"/>
<path d="M253.519 311.863C253.392 311.863 253.138 303.994 253.138 294.347C253.138 284.701 253.265 276.831 253.519 276.831C253.645 276.831 253.899 284.701 253.899 294.347C253.899 304.121 253.645 311.863 253.519 311.863Z" fill="#263238"/>
<path d="M259.231 311.863C259.104 311.863 258.851 303.994 258.851 294.347C258.851 284.701 258.978 276.831 259.231 276.831C259.358 276.831 259.612 284.701 259.612 294.347C259.485 304.121 259.358 311.863 259.231 311.863Z" fill="#263238"/>
<path d="M264.817 311.863C264.69 311.863 264.436 303.994 264.436 294.347C264.436 284.701 264.563 276.831 264.817 276.831C264.944 276.831 265.198 284.701 265.198 294.347C265.198 304.121 265.071 311.863 264.817 311.863Z" fill="#263238"/>
<path d="M280.051 294.855L278.02 318.21H200.961L202.993 296.505C203.247 294.474 204.897 292.824 207.055 292.824L244.505 292.951C244.505 291.555 245.648 290.412 247.044 290.412H275.989C278.401 290.539 280.305 292.57 280.051 294.855Z" fill="#FF725E"/>
<path d="M224.066 305.263H108.542V376.216H224.066V305.263Z" fill="#263238"/>
<path d="M294.015 305.263H178.491V376.216H294.015V305.263Z" fill="#455A64"/>
<path d="M294.015 375.835C294.015 375.835 294.015 375.328 294.015 374.566C294.015 373.677 294.015 372.535 294.015 370.885C294.015 367.585 294.015 362.889 293.889 356.796C293.889 344.611 293.762 326.968 293.762 305.517L294.015 305.771C262.786 305.771 222.416 305.771 178.491 305.898L178.872 305.517C178.872 330.522 178.872 354.257 178.872 375.962L178.618 375.708C212.514 375.708 241.331 375.835 261.77 375.835C271.926 375.835 280.051 375.962 285.637 375.962C288.43 375.962 290.588 375.962 291.984 375.962C292.746 375.962 293.254 375.962 293.635 375.962C293.762 375.835 294.015 375.835 294.015 375.835C294.015 375.835 293.889 375.835 293.508 375.835C293.127 375.835 292.619 375.835 291.857 375.835C290.461 375.835 288.303 375.835 285.51 375.835C279.924 375.835 271.926 375.835 261.77 375.962C241.331 375.962 212.387 376.089 178.491 376.089H178.237V375.835C178.237 354.13 178.237 330.395 178.237 305.39V305.009H178.618C222.543 305.009 262.913 305.009 294.142 305.136H294.396V305.39C294.396 326.968 294.269 344.611 294.269 356.796C294.269 362.889 294.269 367.585 294.142 370.885C294.142 372.535 294.142 373.677 294.142 374.566C294.015 375.454 294.015 375.835 294.015 375.835Z" fill="#263238"/>
<path d="M256.819 309.579H222.67C221.146 309.579 219.877 308.309 219.877 306.786V305.263H259.485V306.786C259.612 308.309 258.343 309.579 256.819 309.579Z" fill="#263238"/>
<path d="M257.708 321.129H223.305V330.395H257.708V321.129Z" fill="#E0E0E0"/>
<path d="M256.311 261.092C255.169 265.534 254.534 270.104 254.28 274.673C254.28 275.308 254.28 275.943 254.788 276.323C255.423 276.704 256.058 275.816 256.438 275.181C257.2 274.293 260.247 269.088 260.247 269.088C264.944 268.581 267.991 264.9 268.118 260.711" fill="#FFBE9D"/>
<path d="M268.245 260.584C268.245 260.584 268.245 260.965 268.245 261.473C268.245 262.107 267.991 262.996 267.61 264.011C267.229 265.027 266.34 266.169 265.198 267.185C264.055 268.2 262.278 268.962 260.501 269.215L260.755 269.088C259.739 270.739 258.724 272.515 257.581 274.419C257.454 274.673 257.2 274.927 256.946 275.181C256.692 275.435 256.565 275.689 256.311 275.943C256.058 276.196 255.804 276.45 255.423 276.577C254.915 276.704 254.534 276.323 254.407 275.943C254.153 275.181 254.28 274.546 254.28 274.039C254.28 273.404 254.407 272.896 254.407 272.262C254.661 269.977 254.915 268.073 255.169 266.296C255.423 264.646 255.804 263.25 256.058 262.361C256.311 261.473 256.438 260.965 256.565 260.965C256.565 260.965 256.565 261.473 256.311 262.361C256.185 263.25 255.931 264.646 255.677 266.296C255.423 267.946 255.169 269.977 255.042 272.135C255.042 272.642 254.915 273.277 254.915 273.785C254.915 274.419 254.788 274.927 255.042 275.435C255.169 275.689 255.296 275.816 255.423 275.689C255.55 275.689 255.804 275.435 256.058 275.308C256.311 275.054 256.438 274.8 256.692 274.546C256.819 274.293 257.073 274.039 257.2 273.785C258.343 272.008 259.485 270.231 260.374 268.581L260.501 268.454H260.628C262.405 268.2 263.928 267.565 265.071 266.677C266.214 265.788 266.975 264.646 267.483 263.757C268.118 261.98 268.118 260.584 268.245 260.584Z" fill="#EB996E"/>
</g>
<defs>
<clipPath id="clip0_117_899">
<rect width="586" height="543" fill="white"/>
</clipPath>
</defs>
</svg>
